#!OML:ASF X:\für Bonn\!DataBase\2005_08_12_Daniel\c3d\Daniel.ASF
:FULLY-SPECIFIED
:DEGREES
1068
root 16.7257 17.0062 34.0449 -182.588 -54.3982 -180.836
lowerback 12.8256 -3.52138 -0.576155
upperback 4.15097 -5.06995 -1.76028
thorax -2.92372 -2.62787 -0.736195
lowerneck 1.83433 -6.32929 -13.9538
upperneck 14.0898 -10.4839 11.9297
head 5.2517 -5.54081 5.52998
rclavicle -5.99336e-014 9.54166e-015
rhumerus -39.8483 -10.5457 -85.5628
rradius 19.0467
rwrist 20.3343
rhand -15.1641 16.159
rfingers 7.12502
rthumb 11.0065 -13.5324
lclavicle -5.99336e-014 9.54166e-015
lhumerus -35.102 32.8967 73.3001
lradius 18.0462
lwrist -29.1806
lhand -12.8663 -6.52749
lfingers 7.12502
lthumb 13.2221 23.0332
rfemur -25.391 1.77446 19.2597
rtibia 56.8449
rfoot -18.8079 -1.77223
rtoes -10.7478
lfemur 3.85782 -6.66369 -26.6468
ltibia 35.1004
lfoot -35.7539 -5.24213
ltoes -12.5159
1069
root 16.6538 17.0165 33.9766 -182.708 -54.4887 -180.601
lowerback 12.6901 -3.64538 -0.561113
upperback 4.1915 -5.22448 -1.65386
thorax -2.80111 -2.70524 -0.622563
lowerneck 1.75889 -6.32768 -14.0199
upperneck 14.0104 -10.477 12.0616
head 5.24884 -5.53029 5.58139
rclavicle -1.29409e-013 1.11319e-014
rhumerus -40.2087 -11.0575 -84.8484
rradius 18.5414
rwrist 20.9001
rhand -14.9982 16.077
rfingers 7.12502
rthumb 11.1665 -13.6058
lclavicle -1.29409e-013 1.11319e-014
lhumerus -34.1466 32.632 73.7119
lradius 18.0017
lwrist -29.7277
lhand -12.7425 -6.43239
lfingers 7.12502
lthumb 13.3414 23.1205
rfemur -25.9605 1.88976 19.5329
rtibia 55.842
rfoot -18.6192 -1.73344
rtoes -10.2235
lfemur 4.46506 -6.78968 -26.5088
ltibia 34.5046
lfoot -35.6195 -5.18963
ltoes -12.3099
1070
root 16.5796 17.0276 33.9067 -182.794 -54.5488 -180.364
lowerback 12.528 -3.76412 -0.509665
upperback 4.21056 -5.36659 -1.55469
thorax -2.68985 -2.77565 -0.54029
lowerneck 1.71135 -6.32294 -14.0794
upperneck 13.9215 -10.4683 12.1877
head 5.23745 -5.52002 5.6311
rclavicle -1.56444e-013 4.05521e-014
rhumerus -40.59 -11.7782 -84.002
rradius 17.9845
rwrist 21.6637
rhand -14.921 16.0547
rfingers 7.12502
rthumb 11.241 -13.6242
lclavicle -1.56444e-013 4.05521e-014
lhumerus -33.2781 32.3147 74.0827
lradius 18.0135
lwrist -30.2546
lhand -12.6651 -6.38627
lfingers 7.12502
lthumb 13.416 23.1617
rfemur -26.5266 2.00927 19.7963
rtibia 54.7429
rfoot -18.3297 -1.67016
rtoes -9.63256
lfemur 5.05869 -6.92697 -26.3815
ltibia 33.888
lfoot -35.5007 -5.08197
ltoes -12.2628
1071
root 16.5048 17.0379 33.8358 -182.941 -54.6182 -180.063
lowerback 12.3877 -3.89999 -0.421592
upperback 4.22978 -5.52734 -1.44115
thorax -2.59199 -2.85528 -0.459974
lowerneck 1.66981 -6.3031 -14.2221
upperneck 13.8303 -10.4479 12.3835
head 5.23031 -5.50565 5.7184
rclavicle 3.02153e-014 -8.34896e-015
rhumerus -40.9731 -12.7262 -82.9637
rradius 17.3551
rwrist 22.7363
rhand -14.9589 16.0957
rfingers 7.12502
rthumb 11.2043 -13.5851
lclavicle 3.02153e-014 -8.34896e-015
lhumerus -32.4461 31.8192 74.5075
lradius 18.114
lwrist -30.5371
lhand -12.6869 -6.28439
lfingers 7.12502
lthumb 13.395 23.265
rfemur -27.0293 2.09821 20.0935
rtibia 53.5527
rfoot -17.9177 -1.58266
rtoes -9.01646
lfemur 5.66799 -7.04392 -26.1981
ltibia 33.2599
lfoot -35.3375 -5.00855
ltoes -12.1807
1072
root 16.4299 17.0485 33.7642 -183.05 -54.6862 -179.784
lowerback 12.2645 -4.02307 -0.316586
upperback 4.23003 -5.66971 -1.33979
thorax -2.52567 -2.92512 -0.402672
lowerneck 1.64278 -6.30392 -14.3248
upperneck 13.7195 -10.4501 12.5426
head 5.21418 -5.50184 5.78599
rclavicle -1.18873e-013 3.29983e-014
rhumerus -41.4033 -13.8892 -81.7686
rradius 16.7232
rwrist 24.0028
rhand -15.0349 16.1609
rfingers 7.12502
rthumb 11.1311 -13.5238
lclavicle -1.18873e-013 3.29983e-014
lhumerus -31.6635 31.4 74.8244
lradius 18.1958
lwrist -30.9627
lhand -12.7395 -6.26102
lfingers 7.12502
lthumb 13.3443 23.2917
rfemur -27.5138 2.16705 20.3737
rtibia 52.2722
rfoot -17.4014 -1.52612
rtoes -8.50471
lfemur 6.26041 -7.16347 -26.0217
ltibia 32.6093
lfoot -35.1544 -4.94406
ltoes -12.1378
1073
root 16.3555 17.0582 33.6909 -183.177 -54.7365 -179.483
lowerback 12.1475 -4.14869 -0.217758
upperback 4.23114 -5.81689 -1.23408
thorax -2.46075 -2.9975 -0.336892
lowerneck 1.66601 -6.28432 -14.4476
upperneck 13.5827 -10.4328 12.7325
head 5.18116 -5.49053 5.87052
rclavicle 1.51076e-014 -1.11319e-014
rhumerus -41.8717 -15.3417 -80.3276
rradius 16.0387
rwrist 25.6654
rhand -15.1988 16.3258
rfingers 7.12502
rthumb 10.973 -13.3674
lclavicle 1.51076e-014 -1.11319e-014
lhumerus -30.8906 30.9188 75.0949
lradius 18.24
lwrist -31.2742
lhand -12.8244 -6.26128
lfingers 7.12502
lthumb 13.2625 23.2968
rfemur -27.9618 2.27411 20.6669
rtibia 50.8993
rfoot -16.8233 -1.43488
rtoes -8.36215
lfemur 6.86965 -7.25291 -25.8185
ltibia 31.9357
lfoot -34.9397 -4.89185
ltoes -12.0586
1074
root 16.2794 17.0728 33.6165 -183.284 -54.7772 -179.169
lowerback 12.0108 -4.26641 -0.0904273
upperback 4.23324 -5.95047 -1.12319
thorax -2.38624 -3.06308 -0.285611
lowerneck 1.64751 -6.28248 -14.5758
upperneck 13.4307 -10.4288 12.92
head 5.15286 -5.48318 5.9525
rclavicle -9.58142e-014 -1.98785e-014
rhumerus -42.384 -16.9572 -78.7114
rradius 15.349
rwrist 27.4946
rhand -15.3744 16.5448
rfingers 7.12502
rthumb 10.8036 -13.1573
lclavicle -9.58142e-014 -1.98785e-014
lhumerus -30.0051 30.0735 75.5051
lradius 18.2456
lwrist -31.1188
lhand -12.9316 -6.23979
lfingers 7.12502
lthumb 13.1591 23.325
rfemur -28.4252 2.31916 20.9866
rtibia 49.4282
rfoot -16.09 -1.27099
rtoes -8.5097
lfemur 7.45787 -7.34107 -25.6024
ltibia 31.2323
lfoot -34.725 -4.82861
ltoes -12.0466
1075
root 16.203 17.0862 33.5409 -183.411 -54.806 -178.843
lowerback 11.92 -4.38737 0.0243613
upperback 4.21367 -6.08927 -0.991986
thorax -2.35567 -3.13079 -0.201313
lowerneck 1.64257 -6.26548 -14.7186
upperneck 13.276 -10.4029 13.0932
head 5.11842 -5.46714 6.03447
rclavicle -1.11021e-013 9.54166e-015
rhumerus -43.0178 -18.6969 -76.839
rradius 14.6819
rwrist 29.6271
rhand -15.5291 16.7747
rfingers 7.12502
rthumb 10.6544 -12.9351
lclavicle -1.11021e-013 9.54166e-015
lhumerus -29.1835 29.1897 75.877
lradius 18.2484
lwrist -30.7782
lhand -13.0049 -6.22335
lfingers 7.12502
lthumb 13.0884 23.3459
rfemur -28.8328 2.35073 21.3192
rtibia 47.8446
rfoot -15.2852 -1.13149
rtoes -9.24309
lfemur 8.06953 -7.39433 -25.3594
ltibia 30.5073
lfoot -34.4539 -4.84102
ltoes -11.9073
1076
root 16.1267 17.0986 33.4654 -183.499 -54.8257 -178.552
lowerback 11.8275 -4.5005 0.131773
upperback 4.20394 -6.22044 -0.878268
thorax -2.31489 -3.19516 -0.133008
lowerneck 1.57542 -6.26517 -14.7839
upperneck 13.1427 -10.3923 13.2472
head 5.09832 -5.4533 6.09394
rclavicle -1.09332e-015 9.93923e-015
rhumerus -43.8154 -20.8671 -74.5714
rradius 14.0219
rwrist 32.3651
rhand -15.694 17.0805
rfingers 7.12502
rthumb 10.4954 -12.6375
lclavicle -1.09332e-015 9.93923e-015
lhumerus -28.3602 28.2629 76.2066
lradius 18.289
lwrist -30.3249
lhand -12.9866 -6.19379
lfingers 7.12502
lthumb 13.1061 23.3744
rfemur -29.2182 2.35127 21.6309
rtibia 46.1526
rfoot -14.377 -1.11925
rtoes -10.4662
lfemur 8.67356 -7.45156 -25.1451
ltibia 29.769
lfoot -34.1461 -4.81594
ltoes -11.976
1077
root 16.0497 17.112 33.3885 -183.607 -54.8338 -178.222
lowerback 11.7464 -4.60984 0.273602
upperback 4.17563 -6.3422 -0.766553
thorax -2.30338 -3.25412 -0.0851336
lowerneck 1.54963 -6.2717 -14.7821
upperneck 12.9991 -10.3895 13.342
head 5.0629 -5.44443 6.12377
rclavicle 5.94366e-014 1.98785e-015
rhumerus -44.7526 -23.0527 -72.1555
rradius 13.4129
rwrist 35.1708
rhand -15.8123 17.282
rfingers 7.12502
rthumb 10.3812 -12.4418
lclavicle 5.94366e-014 1.98785e-015
lhumerus -27.6396 27.4838 76.3962
lradius 18.3693
lwrist -29.9529
lhand -12.9386 -6.18538
lfingers 7.12502
lthumb 13.1524 23.3798
rfemur -29.5589 2.35925 21.9588
rtibia 44.3442
rfoot -13.3761 -1.12916
rtoes -11.769
lfemur 9.24731 -7.52003 -24.907
ltibia 29.0551
lfoot -33.8388 -4.80309
ltoes -11.9564
1078
root 15.9727 17.1245 33.3109 -183.69 -54.82 -177.952
lowerback 11.7038 -4.69318 0.375292
upperback 4.15549 -6.43571 -0.65812
thorax -2.30014 -3.29976 -0.019632
lowerneck 1.52305 -6.29076 -14.7624
upperneck 12.8058 -10.4004 13.4658
head 5.01504 -5.43938 6.15904
rclavicle 9.02482e-014 1.59028e-015
rhumerus -45.9042 -25.4802 -69.3737
rradius 12.8332
rwrist 38.2645
rhand -15.9212 17.4986
rfingers 7.12502
rthumb 10.2762 -12.2303
lclavicle 9.02482e-014 1.59028e-015
lhumerus -26.9785 26.8174 76.5353
lradius 18.5335
lwrist -29.5446
lhand -12.8406 -6.18323
lfingers 7.12502
lthumb 13.2469 23.3758
rfemur -29.8328 2.38868 22.2469
rtibia 42.4702
rfoot -12.3277 -1.19928
rtoes -13.0569
lfemur 9.85636 -7.68187 -24.7573
ltibia 28.3562
lfoot -33.5438 -4.70442
ltoes -11.9823
1079
root 15.8953 17.1343 33.2328 -183.788 -54.7836 -177.65
lowerback 11.6613 -4.78667 0.498763
upperback 4.13136 -6.54019 -0.54718
thorax -2.30319 -3.35073 0.0382037
lowerneck 1.44747 -6.30035 -14.7234
upperneck 12.6715 -10.3943 13.5497
head 4.98809 -5.42568 6.1776
rclavicle 2.92213e-014 3.18055e-015
rhumerus -47.2648 -27.9736 -66.3242
rradius 12.3072
rwrist 41.6423
rhand -15.9625 17.5948
rfingers 7.12502
rthumb 10.2364 -12.1362
lclavicle 2.92213e-014 3.18055e-015
lhumerus -26.385 26.3886 76.5594
lradius 18.7062
lwrist -29.2246
lhand -12.7367 -6.18934
lfingers 7.12502
lthumb 13.347 23.3632
rfemur -30.0829 2.49201 22.5334
rtibia 40.5559
rfoot -11.2755 -1.34929
rtoes -14.2619
lfemur 10.4383 -7.70129 -24.5305
ltibia 27.6559
lfoot -33.2984 -4.72343
ltoes -12.0668
